<?xml version="1.0" standalone="no"?>
<!DOCTYPE svg PUBLIC "-//W3C//DTD SVG 20010904//EN"
 "http://www.w3.org/TR/2001/REC-SVG-20010904/DTD/svg10.dtd">
<svg version="1.0" xmlns="http://www.w3.org/2000/svg"
 width="512.000000pt" height="512.000000pt" viewBox="0 0 512.000000 512.000000"
 preserveAspectRatio="xMidYMid meet">

<g transform="translate(0.000000,512.000000) scale(0.100000,-0.100000)"
fill="#000000" stroke="none">
<path d="M2900 5114 c-231 -30 -434 -106 -585 -219 -33 -25 -64 -43 -70 -41
-109 50 -146 60 -231 64 -163 8 -278 -35 -396 -146 -202 -191 -307 -471 -308
-822 l0 -75 -88 -21 c-297 -72 -531 -242 -643 -469 -106 -214 -89 -418 52
-626 259 -385 624 -609 1035 -635 113 -8 145 -3 174 26 26 26 26 84 1 109 -23
23 -50 28 -191 35 -193 10 -386 78 -547 193 -67 47 -74 54 -45 46 11 -2 54 0
97 6 195 27 360 172 426 372 20 63 24 93 24 199 -1 112 -5 139 -38 260 -66
245 -81 350 -82 575 0 214 10 284 57 416 62 168 191 326 301 367 123 46 229
36 343 -32 32 -20 68 -36 80 -36 11 0 61 32 110 72 105 84 247 155 379 190 80
21 112 23 295 23 224 -1 295 -11 491 -74 116 -37 133 -38 164 -6 29 28 32 70
10 102 -25 35 -208 94 -397 129 -82 15 -351 26 -418 18z m-1560 -1499 c6 -44
32 -161 56 -260 29 -119 44 -202 44 -245 0 -255 -188 -441 -406 -401 -133 25
-270 127 -322 240 -53 116 -37 286 38 404 68 108 186 208 316 269 77 36 246
88 255 79 4 -3 12 -42 19 -86z"/>
<path d="M3862 4864 c-32 -22 -43 -57 -31 -92 7 -19 38 -47 102 -90 111 -74
240 -187 302 -264 103 -127 176 -295 189 -433 6 -75 -7 -219 -29 -311 -46
-191 -179 -361 -345 -442 -90 -44 -235 -90 -246 -79 -4 4 -2 44 4 89 16 110
15 342 -2 451 l-13 87 59 0 c74 0 108 -27 108 -87 -1 -44 -12 -62 -57 -88 -50
-30 -65 -77 -37 -120 39 -60 121 -46 195 33 97 106 92 261 -14 363 -62 61
-110 71 -284 63 -239 -11 -459 31 -741 142 -124 48 -329 148 -427 207 -72 44
-112 47 -145 12 -19 -20 -24 -41 -31 -118 -9 -100 -34 -185 -73 -251 -37 -63
-128 -143 -202 -178 -68 -32 -74 -32 -179 -22 -94 9 -169 -33 -221 -122 -70
-119 -70 -269 0 -388 46 -79 103 -115 195 -125 l54 -6 26 -61 c45 -105 109
-200 193 -289 l81 -86 -22 -47 c-64 -132 -230 -339 -373 -462 -103 -89 -282
-211 -412 -280 -95 -51 -101 -53 -185 -55 -139 -3 -235 -56 -235 -129 0 -39
17 -64 53 -77 19 -8 35 -4 74 16 27 14 60 25 74 25 24 0 24 -1 18 -53 -6 -48
-4 -57 17 -82 18 -20 34 -28 56 -28 48 0 78 34 91 104 l12 59 77 0 c229 0 533
58 716 137 44 19 87 37 94 40 18 8 15 -23 -14 -133 -31 -120 -68 -191 -114
-221 -55 -35 -65 -48 -84 -110 -53 -170 -175 -321 -318 -394 -38 -19 -179 -69
-196 -69 -5 0 -20 25 -32 56 -28 69 -111 161 -171 191 -24 11 -79 35 -121 53
-98 40 -181 94 -263 170 -47 44 -72 60 -92 60 -62 -1 -83 -42 -83 -159 0 -215
53 -410 141 -522 28 -35 28 -37 10 -53 -29 -27 -87 -143 -109 -221 -39 -134
-56 -373 -31 -429 14 -30 59 -50 91 -41 13 4 48 31 78 60 71 67 131 107 228
151 172 78 202 96 251 151 l49 55 324 2 c345 3 423 11 638 63 180 43 379 124
400 162 29 55 -5 121 -63 121 -18 0 -73 -18 -123 -39 -251 -109 -617 -163
-972 -146 -141 7 -144 8 -138 29 3 11 6 44 6 72 l0 51 58 12 c228 50 431 209
536 419 14 28 28 52 31 52 2 0 36 -25 77 -55 178 -134 400 -205 641 -205 l111
0 -56 -50 c-60 -54 -78 -93 -58 -130 17 -31 72 -52 105 -40 38 14 204 184 255
259 129 192 210 452 210 674 l0 67 43 -7 c77 -14 415 -7 517 11 52 9 98 16
102 16 4 0 10 -21 14 -46 13 -89 84 -126 140 -73 24 22 26 29 21 82 -5 54 -4
57 18 57 13 0 45 -11 72 -25 56 -29 88 -24 117 17 36 51 2 109 -86 149 -46 20
-70 23 -178 24 -141 1 -182 10 -295 66 -102 51 -268 160 -258 170 37 34 246
69 467 78 179 8 179 8 203 35 42 50 28 87 -78 201 -146 157 -375 283 -597 330
-35 8 -66 16 -69 19 -9 9 42 119 58 127 8 3 54 14 104 23 175 34 322 106 442
220 87 82 129 137 176 231 121 242 140 560 48 790 -94 234 -273 436 -530 598
-80 51 -104 56 -139 31z m-905 -933 c195 -77 418 -133 583 -147 87 -7 84 -5
95 -84 l7 -46 -69 0 c-156 -2 -267 -105 -202 -188 27 -34 77 -35 127 -1 46 31
99 33 136 4 29 -23 29 -12 5 -224 -38 -336 -199 -567 -454 -648 -60 -19 -91
-22 -215 -21 -128 1 -156 4 -235 28 -202 61 -375 189 -489 361 -45 66 -98 181
-116 248 -20 76 -73 105 -130 72 -56 -32 -104 -8 -129 64 -22 68 -9 153 32
199 23 25 46 27 93 10 45 -16 115 1 230 57 70 34 108 60 165 117 99 97 148
192 183 350 l6 27 138 -69 c75 -38 183 -87 239 -109z m850 -1287 c112 -32 250
-100 331 -163 l64 -50 -44 -5 c-23 -3 -86 -10 -138 -16 -127 -15 -240 -45
-326 -85 l-72 -33 -113 107 -112 107 54 38 c29 22 74 61 99 88 l45 48 62 -5
c34 -3 102 -17 150 -31z m-1203 -169 c169 -64 408 -85 556 -51 l64 15 85 -82
c184 -176 372 -328 518 -418 70 -43 71 -44 45 -52 -27 -8 -196 -1 -281 12
l-43 6 -3 65 c-2 75 -20 114 -70 158 -52 46 -129 65 -239 60 -104 -5 -154 -25
-204 -82 -38 -43 -78 -49 -91 -13 -16 42 -60 84 -113 108 -45 20 -69 24 -158
24 -92 0 -111 -3 -154 -25 -52 -27 -93 -69 -108 -112 -19 -54 -188 -151 -343
-196 -70 -21 -272 -62 -302 -62 -9 0 20 25 63 56 242 173 446 389 565 598 l43
75 51 -29 c29 -16 82 -41 119 -55z m160 -428 c27 -10 28 -13 23 -56 -8 -72
-59 -109 -142 -102 -11 1 -35 17 -52 36 -37 39 -45 93 -17 115 32 28 125 31
188 7z m594 -36 c34 -18 30 -81 -7 -123 -27 -30 -35 -33 -86 -33 -53 0 -59 3
-86 35 -21 25 -29 45 -29 73 0 33 4 40 33 53 37 17 140 14 175 -5z m-358 -145
c13 -41 78 -117 124 -145 67 -42 165 -48 250 -15 17 7 18 3 12 -67 -16 -169
-46 -286 -107 -420 l-31 -66 -66 -11 c-120 -20 -216 -24 -310 -13 -172 21
-354 97 -466 195 l-50 43 26 34 c45 59 87 155 113 255 14 54 27 99 29 102 2 2
19 -4 37 -13 42 -22 133 -30 184 -16 66 17 133 66 167 121 39 63 70 68 88 16z
m-1907 -750 c31 -18 82 -44 113 -57 173 -72 227 -118 241 -203 l6 -38 -32 7
c-46 10 -181 8 -218 -4 -28 -8 -35 -6 -59 17 -35 36 -69 105 -87 178 -19 74
-29 134 -24 134 3 0 30 -15 60 -34z m340 -467 c34 -9 37 -12 31 -37 -13 -57
-53 -130 -86 -156 -18 -15 -75 -45 -126 -66 -51 -21 -120 -54 -153 -74 -34
-20 -64 -35 -66 -32 -8 7 18 127 39 185 64 172 177 228 361 180z"/>
<path d="M2683 3646 c-92 -23 -160 -90 -148 -146 13 -61 80 -78 143 -35 22 15
51 25 72 25 21 0 50 -10 72 -25 50 -34 100 -33 127 1 31 39 27 77 -11 115 -62
62 -162 87 -255 65z"/>
<path d="M2983 3080 c-12 -5 -29 -21 -39 -35 -25 -38 -9 -82 44 -122 51 -38
98 -53 172 -53 138 0 256 117 190 188 -34 36 -62 37 -125 3 -32 -17 -66 -31
-75 -31 -9 0 -42 14 -73 30 -62 33 -62 33 -94 20z"/>
</g>
</svg>
